@startuml

state wcs_state{
	[*] -> wcs_idle
	wcs_idle-[#red,bold]-> checking_deposit_mq
	checking_deposit_mq -[#red,bold]-> deposit_begin: deposit(row, col, quantity) \nrobot[row].moveto(col)
	deposit_begin -[#red,bold]-> deposite_end
	deposite_end -[#red,bold]->wcs_idle: user_finished, \nuser_canceled
	checking_deposit_mq: this is a virtual state

	state withdraw_dispaching{
		[*] -> checking_loop_porter
		checking_loop_porter -[#grey,dashed]-> assign_new_picking : P1: any loop_porter is idle
		assign_new_picking: this is a virtual state
		checking_loop_porter --> picking_placing : P2: any porter is ready  
		checking_loop_porter <-- checking_loop_porter: P3: all loop_porters are moving.
		picking_placing -> picking_placing: operator is working
		picking_placing -[#green,bold]-> checking_loop_porter : green button is pressed
	}
	checking_deposit_mq --> check_withdraw_request: deposit mq is empty
	check_withdraw_request --> wcs_idle:  withdraw-queue is empty
	check_withdraw_request --> checking_loop_porter: there is withdraw request
	check_withdraw_request <-- checking_loop_porter: P4: all loop_porters are idle
}


state loop_porter {
	[*] -> loop_idle 
	loop_idle --> moving
	moving -> moving
	moving --> ready
}

picking_placing -[#green,bold]-> loop_idle : green button is pressed
assign_new_picking --> moving


state withdraw_order{
	order_idle --> feeding
	feeding --> feeding
	feeding --> fullfilled
	fullfilled --> packing: user request from web page
	packing --> packed: Yellow-begin button is pressed
	packed --> wms_shipping: Yellow-end button is pressed
	wms_shipping --> wcs_shipping: wcs got the message
	wcs_shipping --> shipped: blue button is pressed
	shipped --> order_idle
	packing: For future version
	packed:: For future version
	fullfilled: show packer-cell led of the order
}

assign_new_picking --> feeding
@enduml
