@startuml



state order_item{
	[*] --> item_idle
	item_idle --> item_started
	item_started ---> item_moving: P2b
    item_moving ---> item_on_gate: loop_porter.is_ready()
	item_on_gate ---> item_picking_placing
    item_picking_placing --> item_ported: (green) pick_placed_button is pressed
	item_ported ---> item_tube_inlet
	item_tube_inlet ---> item_tube_porting
	item_tube_porting ----> item_tube_outlet
	item_tube_outlet --> item_ended
	
}

state tube{
	[*] --> tube_idle
	tube_idle -[dashed]-> tube_setting_valves
	tube_setting_valves --> tube_ready
	tube_ready -[dashed]-> tube_porting
	tube_problem <-- tube_porting 
	tube_porting --> tube_ported
	tube_problem --> tube_ported

}
tube_idle -[dashed]-> item_tube_inlet
item_tube_inlet --> tube_setting_valves
tube_ready -[dashed]-> item_tube_porting
tube_ported -[dashed]-> item_tube_outlet
item_tube_porting --> tube_porting
item_tube_outlet --> tube_idle

state order{
	[*] --> order_idle
	order_idle --> order_got_packer_cell
	order_got_packer_cell --> order_feeding
	order_feeding --> order_fullfilled:  all_items.states == item_ended
	order_fullfilled --> order_packed: (yellow) packed_button is pressed
	order_packed -->order_shipped:  (blue) shipped_button is pressed
	order_shipped --> order_ended
}

order_got_packer_cell -[#blue,dashed]-> item_idle


state loop_porter {
	[*] --> loop_idle 
	loop_idle --> loop_moving
	loop_moving --> loop_ready
}
loop_idle -[dashed]---> item_started
item_started --> loop_moving: P2a: loop_porter.MoveTo()
loop_ready -[dashed]-> item_moving


state picker_placer{
	[*] --> picker_idle
	picker_idle --> picker_picking_placing
	picker_picking_placing --> picker_picked_placed: green_button is pressed
	
}
picker_idle -[dashed]-> item_on_gate
item_on_gate --> picker_picking_placing: trun on green_led pair
picker_picked_placed -[dashed]-> item_picking_placing
item_ported --> picker_idle

state shipper{
	[*] --> shipper_idle
	shipper_idle --> shipper_loading
	shipper_loading --> shipper_shipped

}

state wcs_state{
	[*] -> wcs_idle
	wcs_idle-[#red,dashed]-> checking_deposit_mq
	checking_deposit_mq -[#red,bold]-> deposit_begin: deposit(row, col, quantity) \nrobot[row].moveto(col)
	deposit_begin -[#red,bold]-> deposite_end
	deposite_end -[#red,bold]->wcs_idle: user_finished, \nuser_canceled
	checking_deposit_mq: this is a virtual state

	checking_deposit_mq --> check_withdraw_request: deposit mq is empty
	check_withdraw_request --> wcs_idle:  withdraw-queue is empty
	check_withdraw_request --> withdraw_dispaching
	withdraw_dispaching --> check_withdraw_request: withdraw-queue is empty


}

withdraw_dispaching -[#blue,dashed]-> order



item_ported --> loop_idle




@enduml
